<?xml version="1.0" encoding="UTF-8"?>
<svg id="Layer_2" data-name="Layer 2" xmlns="http://www.w3.org/2000/svg" xmlns:xlink="http://www.w3.org/1999/xlink" viewBox="0 0 258.64 415.53">
  <defs>
    <style>
      .cls-1 {
        fill: none;
      }

      .cls-2 {
        fill: #80c41c;
      }

      .cls-3 {
        clip-path: url(#clippath);
      }
    </style>
    <clipPath id="clippath">
      <rect class="cls-1" x="90.33" y="83.79" width="168.31" height="247.95"/>
    </clipPath>
  </defs>
  <g id="Layer_1-2" data-name="Layer 1">
    <g>
      <g class="cls-3">
        <path class="cls-2" d="M168.99,321.3c.39,5.65-4.08,10.44-9.73,10.44h-58.25c-5.66,0-10.14-4.79-9.74-10.44l4.67-67.02c.08-1.14.08-2.29,0-3.44l-4.67-67.03c-.39-5.63,4.08-10.44,9.74-10.44h58.25c5.65,0,10.12,4.81,9.73,10.44l-4.66,67.04c-.08,1.14-.08,2.29,0,3.43l4.66,67.02Z"/>
        <path class="cls-2" d="M168.99,147.92c.39,5.65-4.08,10.44-9.73,10.44h-58.25c-5.66,0-10.14-4.79-9.74-10.44l4.67-67.02c.08-1.14.08-2.29,0-3.44l-4.67-67.03c-.39-5.63,4.08-10.44,9.74-10.44h58.25c5.65,0,10.12,4.81,9.73,10.44l-4.66,67.04c-.08,1.14-.08,2.29,0,3.43l4.66,67.02Z"/>
        <path class="cls-2" d="M258.51,405.09c.39,5.65-4.08,10.44-9.73,10.44h-58.25c-5.66,0-10.14-4.79-9.74-10.44l4.67-67.02c.08-1.14.08-2.29,0-3.44l-4.67-67.03c-.39-5.63,4.08-10.44,9.74-10.44h58.25c5.65,0,10.12,4.81,9.73,10.44l-4.66,67.04c-.08,1.14-.08,2.29,0,3.43l4.66,67.02Z"/>
        <path class="cls-2" d="M258.51,231.71c.39,5.65-4.08,10.44-9.73,10.44h-58.25c-5.66,0-10.14-4.79-9.74-10.44l4.67-67.02c.08-1.14.08-2.29,0-3.44l-4.67-67.03c-.39-5.63,4.08-10.44,9.74-10.44h58.25c5.65,0,10.12,4.81,9.73,10.44l-4.66,67.04c-.08,1.14-.08,2.29,0,3.43l4.66,67.02Z"/>
      </g>
      <path class="cls-2" d="M82.28,257.33h0C34.54,224.9-2.25,151.87.11,94.21h0c47.74,32.43,84.53,105.46,82.17,163.12Z"/>
      <path class="cls-2" d="M82.65,275.73h0c-30.25-1.92-66.39-25.14-80.72-51.86h0c30.25,1.92,66.39,25.14,80.72,51.86Z"/>
    </g>
  </g>
</svg>